<?xml version="1.0" encoding="UTF-8"?>
<!DOCTYPE svg PUBLIC "-//W3C//DTD SVG 1.1//EN" "http://www.w3.org/Graphics/SVG/1.1/DTD/svg11.dtd">
<svg xmlns="http://www.w3.org/2000/svg" version="1.1" width="2100px" height="1500px" style="shape-rendering:geometricPrecision; text-rendering:geometricPrecision; image-rendering:optimizeQuality; fill-rule:evenodd; clip-rule:evenodd" xmlns:xlink="http://www.w3.org/1999/xlink">
<g><path style="opacity:0.919" fill="#56b043" d="M 822.5,575.5 C 857.917,572.402 891.583,578.569 923.5,594C 861.247,576.234 805.247,587.901 755.5,629C 734.922,630.433 715.756,636.266 698,646.5C 698.398,644.369 699.398,642.369 701,640.5C 733.195,603.483 773.695,581.817 822.5,575.5 Z"/></g>
<g><path style="opacity:0.938" fill="#00b206" d="M 852.5,626.5 C 915.832,622.488 962.498,648.155 992.5,703.5C 991.645,704.293 990.811,703.96 990,702.5C 960.065,661.174 919.565,643.007 868.5,648C 807.333,659.833 770.833,696.333 759,757.5C 754.383,810.758 773.883,852.591 817.5,883C 832.676,892.085 849.009,898.085 866.5,901C 807.26,898.634 765.427,870.467 741,816.5C 722.042,763.307 730.375,714.974 766,671.5C 789.684,646.575 818.518,631.575 852.5,626.5 Z"/></g>
<g><path style="opacity:0.958" fill="#56b043" d="M 745.5,636.5 C 746.978,636.238 748.311,636.571 749.5,637.5C 740.654,651.866 731.82,666.199 723,680.5C 721.069,696.799 719.402,713.132 718,729.5C 716.401,744.699 710.067,757.365 699,767.5C 698.798,769.256 698.298,770.922 697.5,772.5C 684.875,752.207 680.375,730.207 684,706.5C 685.28,700.493 687.447,694.826 690.5,689.5C 690.154,688.304 689.654,688.304 689,689.5C 676.045,707.12 672.712,726.453 679,747.5C 683.084,760.338 689.251,772.005 697.5,782.5C 698.325,783.386 699.325,783.719 700.5,783.5C 711.231,845.392 744.898,889.892 801.5,917C 853.615,938.379 904.615,936.046 954.5,910C 955.5,909.333 956.5,909.333 957.5,910C 899.775,951.132 837.775,958.799 771.5,933C 744.425,921.052 721.259,903.885 702,881.5C 686.825,851.158 664.325,827.824 634.5,811.5C 633.304,811.846 633.304,812.346 634.5,813C 654.826,825.322 671.992,841.156 686,860.5C 689.002,865.503 691.169,870.836 692.5,876.5C 663.195,892.339 638.029,887.339 617,861.5C 607.273,847.436 597.94,833.103 589,818.5C 586.5,816 584,813.5 581.5,811C 566.513,803.844 552.179,795.677 538.5,786.5C 580.037,768.172 619.871,771.172 658,795.5C 649.347,778.511 644.513,760.344 643.5,741C 646.727,694.232 670.06,661.898 713.5,644C 724.107,640.65 734.774,638.15 745.5,636.5 Z"/></g>
<g><path style="opacity:0.963" fill="#00b206" d="M 601.5,715.5 C 624.979,714.145 635.812,725.145 634,748.5C 628.573,763.891 617.739,770.057 601.5,767C 588.86,763.194 582.527,754.694 582.5,741.5C 582.728,728.284 589.061,719.618 601.5,715.5 Z"/></g>
<g><path style="opacity:0.933" fill="#00b206" d="M 858.5,719.5 C 864.205,719.032 867.372,721.698 868,727.5C 872.705,752.432 877.038,777.432 881,802.5C 882.451,812.361 885.951,821.361 891.5,829.5C 888.575,833.437 884.575,835.603 879.5,836C 876.167,836.667 872.833,836.667 869.5,836C 868.069,835.535 866.903,834.701 866,833.5C 861.967,818.102 859.467,802.436 858.5,786.5C 847.5,786.5 836.5,786.5 825.5,786.5C 824.52,794.144 824.353,801.811 825,809.5C 827.192,815.68 831.359,817.68 837.5,815.5C 838.357,827.647 832.69,834.314 820.5,835.5C 814.276,835.309 810.11,832.309 808,826.5C 805.334,813.168 806.5,800.168 811.5,787.5C 800.706,788.13 798.706,784.297 805.5,776C 809.304,774.95 813.137,774.116 817,773.5C 824.723,755.213 835.556,739.046 849.5,725C 852.596,723.128 855.596,721.295 858.5,719.5 Z M 849.5,741.5 C 851.328,744.135 852.495,747.135 853,750.5C 854.494,758.461 855.66,766.461 856.5,774.5C 847.475,774.832 838.475,774.498 829.5,773.5C 834.676,761.796 841.343,751.129 849.5,741.5 Z"/></g>
<g><path style="opacity:0.933" fill="#56b043" d="M 1080.5,720.5 C 1089.49,720.331 1097.82,722.497 1105.5,727C 1111.8,734.032 1112.13,741.366 1106.5,749C 1102.02,751.877 1097.36,752.21 1092.5,750C 1093.69,735.21 1087.03,729.876 1072.5,734C 1061.53,742.782 1061.86,751.115 1073.5,759C 1083.78,763.473 1093.78,768.473 1103.5,774C 1115.5,785.834 1118.34,799.667 1112,815.5C 1107.22,824.325 1100.05,830.492 1090.5,834C 1074.67,838.583 1060,836.25 1046.5,827C 1040.8,819.824 1038.97,811.658 1041,802.5C 1044.63,791.558 1052.13,787.391 1063.5,790C 1071.29,794.366 1071.46,799.199 1064,804.5C 1061.09,818.919 1066.92,824.752 1081.5,822C 1092.74,816.623 1095.91,808.123 1091,796.5C 1088.13,793.296 1084.96,790.463 1081.5,788C 1073.08,784.193 1064.75,780.193 1056.5,776C 1045.6,768.646 1041.77,758.48 1045,745.5C 1047.98,735.185 1054.48,728.018 1064.5,724C 1069.87,722.362 1075.2,721.195 1080.5,720.5 Z"/></g>
<g><path style="opacity:0.928" fill="#56b043" d="M 1133.5,724.5 C 1135.86,724.337 1138.19,724.503 1140.5,725C 1141.19,726.067 1141.69,727.234 1142,728.5C 1142.17,740.514 1142.67,752.514 1143.5,764.5C 1150.35,762.498 1157.35,761.998 1164.5,763C 1170.87,764.436 1175.04,768.269 1177,774.5C 1177.08,790.168 1177.08,805.835 1177,821.5C 1177.82,826.463 1179.32,831.129 1181.5,835.5C 1175.41,835.861 1169.41,835.361 1163.5,834C 1158.24,830.476 1155.57,825.476 1155.5,819C 1157.67,806.972 1160.01,794.972 1162.5,783C 1161.01,773.252 1155.67,770.252 1146.5,774C 1145.33,775.167 1144.17,776.333 1143,777.5C 1142.46,794.187 1142.46,810.853 1143,827.5C 1137.88,834.094 1131.22,836.76 1123,835.5C 1124.18,820.21 1125.18,804.877 1126,789.5C 1126.81,773.431 1126.15,757.431 1124,741.5C 1122.72,738.397 1120.89,735.731 1118.5,733.5C 1119.05,731.372 1120.39,729.872 1122.5,729C 1126.31,727.572 1129.97,726.072 1133.5,724.5 Z"/></g>
<g><path style="opacity:0.881" fill="#00b206" d="M 1019.5,734.5 C 1031.88,732.369 1036.21,737.202 1032.5,749C 1027.28,749.939 1022.12,751.105 1017,752.5C 1016.5,752.167 1016,751.833 1015.5,751.5C 1014.41,747.892 1014.24,744.225 1015,740.5C 1015.6,737.746 1017.1,735.746 1019.5,734.5 Z"/></g>
<g><path style="opacity:0.92" fill="#00b206" d="M 943.5,759.5 C 945.527,759.338 947.527,759.505 949.5,760C 949.957,760.414 950.291,760.914 950.5,761.5C 949.179,766.066 948.345,770.733 948,775.5C 947.957,803.207 947.29,830.874 946,858.5C 941.286,874.775 930.453,882.609 913.5,882C 911.717,880.933 911.217,879.433 912,877.5C 919.047,873.431 923.714,867.431 926,859.5C 929.657,842.037 931.491,824.371 931.5,806.5C 930.917,795.504 930.417,784.504 930,773.5C 922.926,771.021 917.593,773.354 914,780.5C 909.959,791.455 909.626,802.455 913,813.5C 914.167,814.667 915.333,815.833 916.5,817C 919.754,816.865 922.92,817.031 926,817.5C 926.451,831.698 919.618,837.198 905.5,834C 901.725,832.558 898.892,830.058 897,826.5C 890.174,808.572 891.507,791.238 901,774.5C 909.746,763.03 921.079,759.363 935,763.5C 937.723,761.719 940.556,760.386 943.5,759.5 Z"/></g>
<g><path style="opacity:0.925" fill="#00b206" d="M 958.5,761.5 C 964.369,761.066 969.202,763.066 973,767.5C 980.613,761.889 988.78,761.055 997.5,765C 1002.6,768.881 1004.93,774.047 1004.5,780.5C 1003.4,786.522 1003.23,792.522 1004,798.5C 999.17,800.803 994.337,800.636 989.5,798C 988.299,797.097 987.465,795.931 987,794.5C 987.124,788.474 987.457,782.474 988,776.5C 984.021,772.356 980.355,772.69 977,777.5C 975.956,779.715 975.29,782.048 975,784.5C 974.55,799.514 974.55,814.514 975,829.5C 970.011,834.938 963.845,836.771 956.5,835C 955.941,834.275 955.608,833.442 955.5,832.5C 958.988,809.66 959.321,786.827 956.5,764C 957.381,763.292 958.047,762.458 958.5,761.5 Z"/></g>
<g><path style="opacity:0.925" fill="#56b043" d="M 1249.5,761.5 C 1255.37,761.066 1260.2,763.066 1264,767.5C 1271.61,761.889 1279.78,761.055 1288.5,765C 1293.6,768.881 1295.93,774.047 1295.5,780.5C 1294.4,786.522 1294.23,792.522 1295,798.5C 1290.17,800.803 1285.34,800.636 1280.5,798C 1279.3,797.097 1278.47,795.931 1278,794.5C 1278.12,788.474 1278.46,782.474 1279,776.5C 1275.02,772.356 1271.35,772.69 1268,777.5C 1266.96,779.715 1266.29,782.048 1266,784.5C 1265.55,799.514 1265.55,814.514 1266,829.5C 1261.01,834.938 1254.84,836.771 1247.5,835C 1246.94,834.275 1246.61,833.442 1246.5,832.5C 1249.99,809.66 1250.32,786.827 1247.5,764C 1248.38,763.292 1249.05,762.458 1249.5,761.5 Z"/></g>
<g><path style="opacity:0.927" fill="#00b206" d="M 1025.5,762.5 C 1028.12,762.232 1030.62,762.565 1033,763.5C 1033.16,777.663 1032.99,791.829 1032.5,806C 1032.67,813.167 1032.83,820.333 1033,827.5C 1033.5,829.5 1034,831.5 1034.5,833.5C 1034.18,834.647 1033.52,835.481 1032.5,836C 1026.19,837.13 1020.36,835.963 1015,832.5C 1015.12,815.502 1015.12,798.502 1015,781.5C 1014.34,777.335 1012.5,773.835 1009.5,771C 1009.76,769.739 1010.43,768.739 1011.5,768C 1016.16,765.842 1020.83,764.009 1025.5,762.5 Z"/></g>
<g><path style="opacity:0.923" fill="#56b043" d="M 1205.5,762.5 C 1212.56,762.212 1219.56,762.712 1226.5,764C 1236.12,767.557 1240.12,774.557 1238.5,785C 1237.49,794.82 1237.32,804.654 1238,814.5C 1238.59,821.156 1239.92,827.489 1242,833.5C 1236.58,834.639 1231.08,834.806 1225.5,834C 1224.07,833.535 1222.9,832.701 1222,831.5C 1221.5,820.172 1221.33,808.838 1221.5,797.5C 1212.75,797.45 1206.25,801.116 1202,808.5C 1200.86,812.389 1201.69,815.722 1204.5,818.5C 1208.38,818.623 1212.21,818.623 1216,818.5C 1217.19,823.152 1216.36,827.319 1213.5,831C 1205.82,836.407 1197.82,836.741 1189.5,832C 1180.69,822.001 1180.19,811.501 1188,800.5C 1191.22,797.612 1194.72,795.112 1198.5,793C 1206.1,790.727 1213.6,788.227 1221,785.5C 1221.67,782.167 1221.67,778.833 1221,775.5C 1216.33,771.5 1211.67,771.5 1207,775.5C 1205.2,777.72 1205.04,780.054 1206.5,782.5C 1206.47,784.029 1205.8,785.196 1204.5,786C 1188.92,788.101 1184.75,782.268 1192,768.5C 1196.27,765.806 1200.77,763.806 1205.5,762.5 Z"/></g>
<g><path style="opacity:0.922" fill="#56b043" d="M 1321.5,762.5 C 1328.26,762.123 1334.92,762.623 1341.5,764C 1352.55,772.373 1354.38,782.54 1347,794.5C 1343.46,799.02 1338.96,802.186 1333.5,804C 1328.1,805.396 1322.77,806.896 1317.5,808.5C 1320.83,819.668 1327.83,822.835 1338.5,818C 1341.21,815.629 1343.54,812.963 1345.5,810C 1346.78,809.316 1347.95,809.483 1349,810.5C 1350.64,823.521 1345.14,831.688 1332.5,835C 1314.01,838.5 1303.17,831 1300,812.5C 1298.65,801.577 1299.65,790.91 1303,780.5C 1306.44,771.557 1312.61,765.557 1321.5,762.5 Z M 1325.5,771.5 C 1334.13,771.628 1336.96,775.961 1334,784.5C 1331.14,792.844 1325.31,797.177 1316.5,797.5C 1315.18,787.134 1318.18,778.467 1325.5,771.5 Z"/></g>
</svg>
